# xmcd
#
# Track frame offsets:
#	150
#	12558
#	27049
#	39727
#	53346
#	67533
#	80752
#	92968
#	108264
#	121712
#	136745
#	152035
#	166951
#	180895
#	193564
#	206548
#	220451
#	234207
#	247638
#	259104
#
# Disc length: 3616 seconds
#
# Revision: 0
# Processed by: cddbd v1.5.2PL0 Copyright (c) Steve Scherf et al.
# Submitted via: EasyCDDAExtractor 10.0.5.1
#
DISCID=f20e1e14
DTITLE=Muddy Waters - His Best 1947 To 1955
DYEAR=2006
DGENRE=Blues
TTITLE0=01 - I Can't Be Satisfied
TTITLE1=I Feel Like Going Home
TTITLE2=Train Fare Blues
TTITLE3=Rollin' And Tumblin', Part 1
TTITLE4=Rollin' Stone
TTITLE5=06 - Louisiana Blues
TTITLE6=Long Distance Call
TTITLE7=Honey Bee
TTITLE8=09 - She Moves Me
TTITLE9=10 - Still A Fool
TTITLE10=11 - Standing Around Crying
TTITLE11=Baby Please Don't Go
TTITLE12=I Want You To Love Me
TTITLE13=I'm Your Hoochie Coochie Man
TTITLE14=I Just Want To Make Love To You
TTITLE15=16 - I'm Ready
TTITLE16=17 - Young Fashioned Ways
TTITLE17=Mannish Boy
TTITLE18=Sugar Sweet
TTITLE19=Trouble No More
EXTD=
EXTT0=
EXTT1=
EXTT2=
EXTT3=
EXTT4=
EXTT5=
EXTT6=
EXTT7=
EXTT8=
EXTT9=
EXTT10=
EXTT11=
EXTT12=
EXTT13=
EXTT14=
EXTT15=
EXTT16=
EXTT17=
EXTT18=
EXTT19=
PLAYORDER=
